# xmcd
#
# Track frame offsets:
#	150
#	15045
#	29321
#	43956
#	58291
#	73599
#	88845
#	103613
#	118159
#	132913
#	146873
#	161445
#	176160
#	191032
#
# Disc length: 2731 seconds
#
# Revision: 1
# Processed by: cddbd v1.5.2PL0 Copyright (c) Steve Scherf et al.
# Submitted via: EasyCDDAExtractor 16.0.8.2
#
DISCID=cc0aa90e
DTITLE=Συλλογικός δίσκος - Τα σκληρά Τραγ. περί απαγορευμένων ουσιών
DYEAR=1998
DGENRE=Ρεμπέτικη
TTITLE0=Διαμαντίδης Αντώνης ή Νταλγκάς - Νέοι χασικλήδες (Έμαθα πως είσαι μάγκ
TTITLE0=ας) [Παραδοσιακό]
TTITLE1=Κασιμάτης Ζαχαρίας - Ο Μανώλης ο χασικλής [Γιάννη Δραγάτση ή Ογδοντάκη
TTITLE1=]
TTITLE2=Εσκενάζυ Ρόζα - Γιατί φουμάρω κοκαΐνη [Παναγιώτη Τούντα]
TTITLE3=Βαμβακάρης Μάρκος - Χαρμάνης [Μάρκου Βαμβακάρη]
TTITLE4=Παγιουμτζής Στράτος - Ζεϊμπεκάνο σπανιόλο (Ζούλα σε μιά βάρκα μπήκα)[Γ
TTITLE4=Μπάτη]
TTITLE5=Δελλιάς Ανέστης - Ο πόνος του πρεζάκια [Ανέστη Δελιά]
TTITLE6=Βαμβακάρης Μάρκος - Κάν' τονε Σταύρο κάν' τονε [Μάρκου Βαμβακάρη]
TTITLE7=Καλυβόπουλος Αντώνης - Πέντε μάγκες στον Περαία [Γιάννη Εϊτζιρίδη ή Γι
TTITLE7=οβάν Τσαούς]
TTITLE8=Εσκενάζυ Ρόζα - Είμαι πρεζάκιας [Σώσου Ιωαννίδη-Αιμίλιου Σαββίδη]
TTITLE9=Περπινιάδης Στελλάκης - Η φωνή του αργιλέ (Πέντε χρόνια δικασμένος) [Β
TTITLE9=Παπάζογλου]
TTITLE10=Μηττάκη Γεωργία - Σ' έναν τεκέ σκαρώσανε [Βασίλη Τσιτσάνη-Δημ. Περδικ
TTITLE10=όπουλου]
TTITLE11=Παγιουμτζής Στράτος-Κηρομύτης Στέλιος - Της μαστούρας ο σκοπός (Όταν 
TTITLE11=συμβεί στα πέριξ)[Β.Τσιτσάνη]
TTITLE12=Παγιουμτζής Στράτος-Περπινιάδης Στελλάκης - Μάγκας βγήκε για σεργιάνι
TTITLE12=[Απ. Καλδάρα-Β. Τσιτσάνη]
TTITLE13=Γεωργακοπούλου Ιωάννα-Χιώτης Μανώλης - Όταν καπνίζει ο λουλάς [Γιώργ.
TTITLE13=Μητσάκη]
EXTD=
EXTT0=
EXTT1=
EXTT2=
EXTT3=
EXTT4=
EXTT5=
EXTT6=
EXTT7=
EXTT8=
EXTT9=
EXTT10=
EXTT11=
EXTT12=
EXTT13=
PLAYORDER=
